<svg width="140" height="140" viewBox="0 0 140 140" fill="none" xmlns="http://www.w3.org/2000/svg">
<g clip-path="url(#clip0_1_2)">
<rect width="140" height="140" fill="white"/>
<path d="M53.784 97.48H52.504V28.36H53.784V62.408H81.56L96.28 28.36H97.688L82.968 62.408H88.216C93.4213 62.408 97.304 63.3893 99.864 65.352C102.424 67.3147 103.704 70.5147 103.704 74.952V97.48H102.424V74.952C102.424 70.856 101.229 67.9547 98.84 66.248C96.4507 64.5413 92.9093 63.688 88.216 63.688H53.784V97.48ZM63 109C64.6213 109 65.7733 108.659 66.456 107.976C67.224 107.208 67.608 106.013 67.608 104.392V75.08H84.504C85.8693 75.08 86.8933 75.464 87.576 76.232C88.2587 77 88.6 78.0667 88.6 79.432V104.392C88.6 106.013 88.9413 107.208 89.624 107.976C90.392 108.659 91.5867 109 93.208 109H112.92C114.541 109 115.693 108.659 116.376 107.976C117.144 107.208 117.528 106.013 117.528 104.392V68.296C117.528 63.176 116.077 59.08 113.176 56.008C110.36 52.8507 106.563 51.144 101.784 50.888L114.84 21.064C115.437 19.6987 115.48 18.6747 114.968 17.992C114.456 17.224 113.475 16.84 112.024 16.84H92.312C90.6907 16.84 89.368 17.1813 88.344 17.864C87.32 18.4613 86.5093 19.528 85.912 21.064L72.728 50.888H67.608V21.448C67.608 19.8267 67.224 18.6747 66.456 17.992C65.7733 17.224 64.6213 16.84 63 16.84H43.16C41.5387 16.84 40.344 17.224 39.576 17.992C38.8933 18.6747 38.552 19.8267 38.552 21.448V104.392C38.552 106.013 38.8933 107.208 39.576 107.976C40.344 108.659 41.5387 109 43.16 109H63ZM67.096 109.128L50.456 122.952C50.1147 123.293 49.56 123.592 48.792 123.848C48.1093 124.104 47.3413 124.232 46.488 124.232H26.648C24.6 124.232 23.1067 123.763 22.168 122.824C21.2293 121.885 20.76 120.392 20.76 118.344V35.4C20.76 34.2907 20.888 33.352 21.144 32.584C21.4853 31.816 21.9547 31.176 22.552 30.664L39.064 16.712C39.4907 16.3707 40.0453 16.1147 40.728 15.944C41.496 15.688 42.3067 15.56 43.16 15.56H63C65.048 15.56 66.5413 16.0293 67.48 16.968C68.4187 17.9067 68.888 19.4 68.888 21.448V33.096C69.144 32.7547 69.4 32.4133 69.656 32.072C69.912 31.6453 70.2107 31.304 70.552 31.048L87.064 17.096C87.6613 16.584 88.3867 16.2 89.24 15.944C90.1787 15.688 91.2027 15.56 92.312 15.56H112.024C114.157 15.56 115.565 16.1147 116.248 17.224C116.931 18.248 116.845 19.6987 115.992 21.576L103.704 49.736C108.312 50.3333 111.981 52.296 114.712 55.624C117.443 58.952 118.808 63.176 118.808 68.296V104.392C118.808 105.501 118.637 106.44 118.296 107.208C118.04 107.976 117.613 108.616 117.016 109.128L100.376 122.952C100.035 123.293 99.48 123.592 98.712 123.848C98.0293 124.104 97.2613 124.232 96.408 124.232H76.696C74.648 124.232 73.1547 123.763 72.216 122.824C71.2773 121.885 70.808 120.392 70.808 118.344V93.384C70.808 92.5307 70.6373 91.848 70.296 91.336C69.9547 90.824 69.4853 90.5253 68.888 90.44V104.392C68.888 105.501 68.7173 106.44 68.376 107.208C68.12 107.976 67.6933 108.616 67.096 109.128Z" fill="black"/>
</g>
<defs>
<clipPath id="clip0_1_2">
<rect width="140" height="140" fill="white"/>
</clipPath>
</defs>
</svg>
